<svg width="20" height="20" fill="none" xmlns="http://www.w3.org/2000/svg"><mask id="a" fill="#fff"><path d="M18.45 5.458a9.592 9.592 0 01-3.923 12.993 9.553 9.553 0 01-5.645 1.075A9.597 9.597 0 015.458 1.535a9.57 9.57 0 018.502-.28 9.555 9.555 0 014.49 4.203z"/></mask><path d="M14.528 18.451l-.236-.44.442.895-.206-.455zM13.96 1.254l-.224.447.477-.878-.253.431zm5.62 9.21l.5.021-1-.05.5.03zM8.927.455l-.033-.5-.466.03-.001.468.5.001zm-3.233 1.52c.676-.362 1.917-.827 3.384-.998 1.464-.172 3.12-.048 4.658.723l.448-.894c-1.76-.882-3.625-1.01-5.222-.823-1.595.187-2.956.69-3.74 1.11l.472.882zm13.386 8.469c-.069 1.694-1.133 5.605-4.788 7.565l.472.882c4.078-2.187 5.238-6.505 5.315-8.407l-.999-.04zM8.427.452l-.045 19.073 1 .003L9.427.454l-1-.002zm.532.5a13.983 13.983 0 012.321.067c.928.105 1.827.314 2.428.667l.505-.863c-.785-.46-1.853-.688-2.82-.798a14.974 14.974 0 00-2.499-.07l.065.997zm10.122 9.482c-.056.914-.365 2.418-1.11 3.892-.744 1.471-1.905 2.879-3.65 3.67l.413.91c2.01-.91 3.315-2.52 4.129-4.128.812-1.605 1.152-3.244 1.216-4.283l-.998-.06zm-5.12-9.18l.412-.91-.413.91zm5.619 9.21l.998.05-.998-.05zM8.927.455l-.11-.995.11.994zm-.045 19.072l-.117.994.117-.994zm-6.466-5.47A8.597 8.597 0 015.93 2.416L4.985.655C-.173 3.42-2.112 9.844.654 15.001l1.762-.945zm11.132-11.89a8.555 8.555 0 014.021 3.765l1.763-.946A10.555 10.555 0 0014.373.343l-.825 1.822zm4.021 3.765a8.553 8.553 0 011.012 4.484l1.997.1c.094-1.86-.303-3.77-1.246-5.53l-1.763.946zm1.012 4.484a8.592 8.592 0 01-4.526 7.155l.946 1.762a10.592 10.592 0 005.577-8.817l-1.997-.1zM5.93 2.417a8.57 8.57 0 013.107-.97L8.816-.541A10.57 10.57 0 004.986.654l.944 1.763zm3.107-.97a8.625 8.625 0 014.51.718l.825-1.822A10.626 10.626 0 008.816-.54l.222 1.988zm5.017 16.123A8.553 8.553 0 019 18.533l-.234 1.987a10.553 10.553 0 006.236-1.188l-.946-1.762zM9 18.533a8.586 8.586 0 01-6.583-4.477L.654 15a10.586 10.586 0 008.111 5.519L9 18.533z" fill="url(#paint0_linear_0_497)" mask="url(#a)"/><defs><linearGradient id="paint0_linear_0_497" x1=".756" y1="8.723" x2="20.965" y2="9.992" gradientUnits="userSpaceOnUse"><stop offset=".288" stop-color="#555248"/><stop offset=".78" stop-color="#1B1A17" stop-opacity="0"/></linearGradient></defs></svg>